<?xml version="1.0" encoding="utf-8"?>
<!-- Generator: Adobe Illustrator 18.0.0, SVG Export Plug-In . SVG Version: 6.00 Build 0)  -->
<!DOCTYPE svg PUBLIC "-//W3C//DTD SVG 1.1//EN" "http://www.w3.org/Graphics/SVG/1.1/DTD/svg11.dtd">
<svg version="1.1" id="Layer_1" xmlns="http://www.w3.org/2000/svg" xmlns:xlink="http://www.w3.org/1999/xlink" x="0px" y="0px"
	 viewBox="0 0 145 200" enable-background="new 0 0 145 200" xml:space="preserve">
<g id="imagebot_2">
	<path id="imagebot_3" fill="#FFFFFF" d="M14.1,40.9l12.3,145.9c0,2.3,2.3,4.1,4.5,4.1h83.2c2.3,0,4.5-1.8,4.5-4.1l12.7-145.9H14.1z
		"/>
	<path id="imagebot_4" fill="#014463" d="M114.5,200H30.9c-7.3,0-13.2-5.5-13.6-12.3L4.5,36.8c0-1.4,0.5-2.7,1.4-3.6
		c0.9-0.9,1.8-1.4,3.2-1.4h127.3c1.4,0,2.3,0.5,3.2,1.4c0.9,0.9,1.4,2.3,1.4,3.6l-12.7,150.9C127.3,194.5,121.4,200,114.5,200
		 M14.1,40.9l12.3,145.9c0,2.3,2.3,4.1,4.5,4.1h83.2c2.3,0,4.5-1.8,4.5-4.1l12.7-145.9H14.1z"/>
	<path id="imagebot_5" fill="#A8C1DD" d="M104.5,40.9H19.1h-5l12.3,145.9c0,2.3,2.3,4.1,4.5,4.1h73.6h10c2.3,0,4.5-1.8,4.5-4.1
		l12.3-145.9H104.5z M30.9,178.2L20.5,55.5c-0.5-5.5,3.6-10,9.1-10h65c5.5,0,9.5,4.5,9.1,10L93.2,178.2c-0.5,4.5-4.5,8.2-9.1,8.2H40
		C35,186.4,31.4,182.7,30.9,178.2"/>
	<polygon id="imagebot_6" fill="#839372" points="127.7,140.9 131.4,86.4 14.1,86.4 17.7,140.9 	"/>
	<path id="imagebot_7" fill="#014463" d="M131.8,150H13.6c-2.3,0-4.5-1.8-4.5-4.1L4.5,82.3c0-1.4,0.5-2.3,1.4-3.6
		c0.9-0.9,1.8-1.4,3.2-1.4h127.3c1.4,0,2.3,0.5,3.2,1.4c0.9,0.9,1.4,2.3,1.4,3.6l-4.5,63.6C136.4,148.2,134.1,150,131.8,150
		 M17.7,140.9h109.5l4.1-54.5H14.1L17.7,140.9z"/>
	<polygon id="imagebot_8" fill="#49684F" points="108.6,86.4 104.5,140.9 127.7,140.9 131.4,86.4 	"/>
	<polygon id="imagebot_9" fill="#49684F" points="14.1,86.4 17.7,140.9 22.3,140.9 18.2,86.4 	"/>
	<path id="imagebot_10" fill="#EDF1F9" d="M136.4,25c0-1.4-0.9-2.3-2.3-2.3h-4.5c-6.4,0-11.4-5-11.4-11.4c0-1.4-0.9-2.3-2.3-2.3
		H29.5c-1.4,0-2.3,0.9-2.3,2.3c0,6.4-5,11.4-11.4,11.4h-4.5c-1.4,0-2.3,0.9-2.3,2.3v6.8h127.3V25z"/>
	<path id="imagebot_11" fill="#A8C1DD" d="M134.1,22.7h-4.5c-6.4,0-11.4-5-11.4-11.4c0-1.4-0.9-2.3-2.3-2.3H88.6
		c1.4,0,2.3,0.9,2.3,2.3c0,6.4,5,11.4,11.4,11.4h4.5c1.4,0,2.3,0.9,2.3,2.3v6.8h27.3V25C136.4,23.6,135.5,22.7,134.1,22.7"/>
	<path id="imagebot_14" fill="#A8C1DD" d="M31.8,11.4c0-1.4,0.9-2.3,2.3-2.3h-4.5c-1.4,0-2.3,0.9-2.3,2.3c0,6.4-5,11.4-11.4,11.4
		h4.5C26.8,22.7,31.8,17.7,31.8,11.4"/>
	<path id="imagebot_15" fill="#A8C1DD" d="M15.9,22.7h-4.5c-1.4,0-2.3,0.9-2.3,2.3v6.8h4.5V25C13.6,23.6,14.5,22.7,15.9,22.7"/>
	<path id="imagebot_16" fill="#004463" d="M134.1,13.6h-4.5c-1.4,0-2.3-0.9-2.3-2.3c0-6.4-5-11.4-11.4-11.4H29.5
		c-6.4,0-11.4,5-11.4,11.4c0,1.4-0.9,2.3-2.3,2.3h-4.5C5,13.6,0,18.6,0,25v11.4c0,2.7,1.8,4.5,4.5,4.5h136.4c2.7,0,4.5-1.8,4.5-4.5
		V25C145.5,18.6,140.5,13.6,134.1,13.6 M27.3,11.4c0-1.4,0.9-2.3,2.3-2.3h86.4c1.4,0,2.3,0.9,2.3,2.3c0,0.9,0,1.4,0.5,2.3H26.8
		C27.3,12.7,27.3,12.3,27.3,11.4 M136.4,31.8H9.1V25c0-1.4,0.9-2.3,2.3-2.3h2.3h2.3h113.6h2.3h2.3c1.4,0,2.3,0.9,2.3,2.3L136.4,31.8
		L136.4,31.8z"/>
	<title>imagebot_2</title>
</g>
</svg>
